# xmcd
#
# Track frame offsets:
#	150
#	15453
#	33942
#	55933
#	77242
#	98405
#	108203
#	133181
#	153171
#	169023
#	189387
#	208426
#	228386
#	251735
#
# Disc length: 3475 seconds
#
# Revision: 0
# Processed by: cddbd v1.5.1PL0 Copyright (c) Steve Scherf et al.
# Submitted via: dBpowerAMP V4.0
#
DISCID=af0d910e
DTITLE=Various Artist - Russian Meditation
DYEAR=1999
DGENRE=Ethnic
TTITLE0=Notchy Byely
TTITLE1=Skaska Matryoshkky
TTITLE2=Ozero Baykal
TTITLE3=Burlaky - Ey ukhnyem
TTITLE4=Beautiful Kalinka
TTITLE5=Notchenka
TTITLE6=On the Shore of the Neva
TTITLE7=Zagorsky Monakhy
TTITLE8=Otchy Tchyornye
TTITLE9=Moscow Poem
TTITLE10=Duchenka
TTITLE11=Stenka rasin
TTITLE12=Natasha's Lovesong
TTITLE13=Dar Valdaya
EXTD=
EXTT0=
EXTT1=
EXTT2=
EXTT3=
EXTT4=
EXTT5=
EXTT6=
EXTT7=
EXTT8=
EXTT9=
EXTT10=
EXTT11=
EXTT12=
EXTT13=
PLAYORDER=
